<svg xmlns="http://www.w3.org/2000/svg" viewBox="0 0 80 80" width="80" height="80" role="img" aria-label="ALPAR AI Icon">
  <defs>
    <!-- Accent Gradient: Emerald to Cyan -->
    <linearGradient id="alpar-accent-grad" x1="10" y1="10" x2="70" y2="70" gradientUnits="userSpaceOnUse">
      <stop offset="0%" stop-color="#00FF88" />
      <stop offset="100%" stop-color="#00E5FF" />
    </linearGradient>

    <!-- Glowing Core Filter -->
    <filter id="alpar-neon-glow" x="-20%" y="-20%" width="140%" height="140%">
      <feGaussianBlur stdDeviation="3" result="blur" />
      <feMerge>
        <feMergeNode in="blur" />
        <feMergeNode in="SourceGraphic" />
      </feMerge>
    </filter>
  </defs>

  <g transform="translate(8, 5)">
    <!-- Shield Outer boundary -->
    <path d="M 32,4 C 18,5.2 8,7 6,8.5 V 36 C 6,56 18,65 32,70 C 46,65 58,56 58,36 V 8.5 C 56,7 46,5.2 32,4 Z" fill="none" stroke="url(#alpar-accent-grad)" stroke-width="2.5" stroke-linejoin="round" />
    <path d="M 32,4 C 18,5.2 8,7 6,8.5 V 36 C 6,56 18,65 32,70 C 46,65 58,56 58,36 V 8.5 C 56,7 46,5.2 32,4 Z" fill="#0B1622" fill-opacity="0.6" />
    <path d="M 32,16 L 18,30 M 32,16 L 46,30 M 18,30 L 32,46 L 46,30 M 32,46 L 32,60" stroke="#00E5FF" stroke-width="1.5" stroke-dasharray="2,2" opacity="0.6" />
    <circle cx="32" cy="16" r="3.5" fill="#00FF88" filter="url(#alpar-neon-glow)" />
    <circle cx="18" cy="30" r="3.5" fill="#00E5FF" filter="url(#alpar-neon-glow)" />
    <circle cx="46" cy="30" r="3.5" fill="#00E5FF" filter="url(#alpar-neon-glow)" />
    <circle cx="32" cy="46" r="4.5" fill="#FFFFFF" stroke="#00FF88" stroke-width="1.5" filter="url(#alpar-neon-glow)" />
    <circle cx="32" cy="60" r="3" fill="#00E5FF" opacity="0.8" />
    <path d="M 12,30 H 52" stroke="#FFFFFF" stroke-width="2" stroke-linecap="round" opacity="0.9" />
  </g>
</svg>