<svg xmlns="http://www.w3.org/2000/svg" viewBox="0 0 100 80" width="100" height="80" role="img" aria-label="ALPAR AI Icon">
  <g transform="translate(10, 0)">
    <path d="M 50,10 V 70" stroke="#000000" stroke-width="3" stroke-linecap="round" />
    <path d="M 50,15 C 30,16 16,20 16,28 V 50 C 16,60 32,66 50,67" fill="none" stroke="#000000" stroke-width="3" stroke-linecap="round" />
    <path d="M 50,32 H 28" stroke="#000000" stroke-width="2.5" stroke-linecap="round" />
    <path d="M 28,32 L 18,50 H 38 Z" fill="none" stroke="#000000" stroke-width="2" stroke-linejoin="round" />
    <path d="M 21,50 C 21,54 35,54 35,50 Z" fill="#000000" opacity="0.85" />
    <path d="M 38,60 H 62" stroke="#000000" stroke-width="3" stroke-linecap="round" />
    <path d="M 50,24 H 68 L 78,14 H 82" fill="none" stroke="#000000" stroke-width="2.5" stroke-linecap="round" stroke-linejoin="round" />
    <circle cx="82" cy="14" r="3.5" fill="#000000" />
    <path d="M 50,38 H 80" fill="none" stroke="#000000" stroke-width="2.5" stroke-linecap="round" />
    <circle cx="80" cy="38" r="3.5" fill="#000000" />
    <path d="M 50,52 H 68 L 78,62 H 82" fill="none" stroke="#000000" stroke-width="2.5" stroke-linecap="round" stroke-linejoin="round" />
    <circle cx="82" cy="62" r="3.5" fill="#000000" />
  </g>
</svg>